# xmcd
#
# Track frame offsets: 
#        150
#        16386
#        36650
#        49779
#        70473
#        82540
#        93151
#        103187
#        123988
#        135003
#        147235
#        160116
#        174411
#        186174
#        199148
#        213512
#        234953
#        249425
#        261632
#        274725
#
# Disc length: 3849 seconds
#
# Revision: 0
# Processed by: cddbd v1.5.2PL0 Copyright (c) Steve Scherf et al.
# Submitted via: ExactAudioCopyFreeDBPlugin 1.0
#
DISCID=170f0714
DTITLE=Justin Trevino - Live at London Dance Hall
DYEAR=2015
DGENRE=
TTITLE0=Unknown Artist - Texas Honky Tonk
TTITLE1=Unknown Artist - You Took Her Off My Hands
TTITLE2=Unknown Artist - Heart Over Mind
TTITLE3=Unknown Artist - Don't You Ever Get Tired
TTITLE4=Unknown Artist - Jim Jack And Rose
TTITLE5=Unknown Artist - I'll Warm By The Flame
TTITLE6=Unknown Artist - You Ought To Hear Me Cry
TTITLE7=Unknown Artist - Shelly's Winter Love
TTITLE8=Unknown Artist - Cheatin' Overtime (w Myra Rolen)
TTITLE9=Unknown Artist - Leaving On Your Mind (Myra Rolen)
TTITLE10=Unknown Artist - When The Grass Grows Over Me
TTITLE11=Unknown Artist - I Can't Make It Without You (Or A Drink Or T
TTITLE11=wo)
TTITLE12=Unknown Artist - My Cup Runneth Over
TTITLE13=Unknown Artist - The Loser
TTITLE14=Unknown Artist - Long Line Of Empties
TTITLE15=Unknown Artist - A Way To Survive
TTITLE16=Unknown Artist - The Other Woman
TTITLE17=Unknown Artist - Hide And Go Cheat
TTITLE18=Unknown Artist - Torn Between Love And Desire
TTITLE19=Unknown Artist - Two Empty Glasses
EXTD=
EXTT0=
EXTT1=
EXTT2=
EXTT3=
EXTT4=
EXTT5=
EXTT6=
EXTT7=
EXTT8=
EXTT9=
EXTT10=
EXTT11=
EXTT12=
EXTT13=
EXTT14=
EXTT15=
EXTT16=
EXTT17=
EXTT18=
EXTT19=
PLAYORDER=
